<?xml version="1.0" encoding="UTF-8" standalone="no"?>
<!DOCTYPE svg PUBLIC "-//W3C//DTD SVG 1.1//EN" "http://www.w3.org/Graphics/SVG/1.1/DTD/svg11.dtd">
<svg width="100%" height="100%" viewBox="0 0 419 451" version="1.1" xmlns="http://www.w3.org/2000/svg" xmlns:xlink="http://www.w3.org/1999/xlink" xml:space="preserve" xmlns:serif="http://www.serif.com/" style="fill-rule:evenodd;clip-rule:evenodd;stroke-linecap:square;stroke-miterlimit:2;">
    <g transform="matrix(1,0,0,1,-14434,-7520)">
        <g transform="matrix(0.588483,0,0,0.608637,6028.11,3030.09)">
            <rect id="Artboard4" x="14284" y="7377" width="712" height="741" style="fill:none;"/>
            <g id="Artboard41" serif:id="Artboard4">
                <g transform="matrix(0.313089,2.77336e-33,-2.86834e-33,0.27668,14232.3,7337.05)">
                    <g transform="matrix(135.952,0,0,135.952,-1972.85,-11987.7)">
                        <path d="M23.182,98.981C22.851,98.981 22.686,99.29 22.679,99.302L22.665,99.331L22.665,100.333L23.699,100.333L23.699,99.331L23.684,99.302C23.678,99.29 23.513,98.981 23.182,98.981Z" style="fill:rgb(145,0,69);fill-rule:nonzero;"/>
                        <path d="M23.427,100.065L22.937,100.065L22.937,99.401C22.97,99.352 23.056,99.248 23.182,99.248C23.308,99.248 23.393,99.352 23.427,99.4L23.427,100.065Z" style="fill:rgb(254,221,16);fill-rule:nonzero;"/>
                        <path d="M25.252,104.875L25.252,105.119L24.158,105.119L24.157,104.941L24.149,102.985L24.137,102.022L24.147,101.9C24.154,101.867 24.164,101.846 24.171,101.819C24.191,101.765 24.224,101.708 24.266,101.665C24.35,101.575 24.478,101.518 24.614,101.514C24.748,101.51 24.883,101.559 24.975,101.648C25.068,101.739 25.121,101.867 25.128,102.011C25.137,102.167 25.139,102.335 25.146,102.496L25.161,102.985C25.187,103.615 25.212,104.245 25.252,104.875Z" style="fill:rgb(254,221,16);fill-rule:nonzero;"/>
                        <path d="M25.818,96.507L25.818,95.556L26.44,95.556L26.44,96.507L25.818,96.507ZM25.545,96.507L24.759,96.508L24.759,95.556L25.545,95.556L25.545,96.507ZM24.487,96.508L23.701,96.508L23.701,95.556L24.487,95.556L24.487,96.508ZM23.429,96.508L22.644,96.508L22.644,95.556L23.429,95.556L23.429,96.508ZM22.371,96.508L21.733,96.508L21.733,95.556L22.371,95.556L22.371,96.508ZM23.067,93.983L23.924,93.983L23.924,95.288L23.067,95.288L23.067,93.983ZM23.281,93.173C23.499,92.903 23.864,92.838 23.864,92.838C23.864,92.838 23.526,93.108 23.51,93.441C23.495,93.726 23.063,93.442 23.281,93.173ZM30.375,104.872C29.907,104.85 29.439,104.838 28.971,104.823L27.567,104.791L26.33,104.775C26.3,104.196 26.277,103.619 26.24,103.041L26.185,102.095L26.122,101.148C26.101,100.833 26.081,100.517 26.055,100.203L25.98,99.258C25.928,98.63 25.872,98.003 25.806,97.377C25.814,97.351 25.816,97.326 25.831,97.294C25.844,97.263 25.856,97.231 25.871,97.2C25.901,97.138 25.932,97.075 25.964,97.014C26.004,96.935 26.047,96.857 26.09,96.779L27.184,96.779C27.26,96.779 27.322,96.719 27.322,96.645C27.322,96.57 27.261,96.509 27.185,96.509L26.712,96.507L26.712,95.288L25.393,95.288L25.393,94.711L25.121,94.683L25.121,95.288L24.197,95.288L24.197,93.983L25.121,93.983L25.121,94.368L25.393,94.357L25.393,93.983L25.825,93.983L25.825,93.716L25.283,93.716C25.251,93.446 25.127,93.203 24.94,93.02C24.774,92.856 24.56,92.741 24.319,92.697L24.085,89.763L23.869,92.697C23.359,92.793 22.965,93.204 22.906,93.716L22.363,93.716L22.363,93.983L22.795,93.983L22.795,95.288L21.46,95.288L21.46,96.509L20.989,96.509C20.912,96.509 20.851,96.57 20.851,96.645C20.851,96.719 20.913,96.78 20.989,96.779L21.574,96.777L21.822,96.777C21.978,96.994 22.139,97.242 22.158,97.308C22.133,97.688 21.819,103.704 21.764,104.782C21.245,104.788 20.728,104.795 20.21,104.807C19.574,104.819 18.938,104.838 18.302,104.858C17.666,104.882 17.029,104.906 16.393,104.944C17.029,104.983 17.666,105.006 18.302,105.03C18.938,105.05 19.574,105.069 20.21,105.081C20.846,105.097 21.482,105.102 22.118,105.11L23.072,105.118L23.963,105.121L24.026,105.121L24.208,105.122L24.207,104.944L24.2,103.001L24.188,102.043L24.197,101.922C24.204,101.889 24.214,101.868 24.22,101.841C24.24,101.787 24.271,101.731 24.311,101.688C24.391,101.598 24.513,101.542 24.642,101.538C24.77,101.534 24.897,101.582 24.985,101.671C25.074,101.761 25.124,101.889 25.131,102.032C25.139,102.187 25.142,102.354 25.148,102.514L25.163,103.001C25.187,103.627 25.21,104.253 25.249,104.879C25.25,104.901 25.252,104.923 25.253,104.944C25.294,104.296 25.318,103.648 25.344,103.001L25.359,102.514C25.363,102.351 25.371,102.193 25.372,102.025C25.375,101.878 25.336,101.72 25.249,101.586C25.229,101.554 25.205,101.524 25.18,101.495C25.045,101.345 24.843,101.259 24.641,101.257L24.62,101.257C24.424,101.259 24.226,101.337 24.087,101.481C24.036,101.533 23.996,101.59 23.963,101.653C23.948,101.681 23.935,101.71 23.923,101.74C23.908,101.79 23.89,101.846 23.881,101.893L23.869,102.014L23.867,102.029L23.866,102.051L23.866,102.059L23.865,102.089L23.862,102.272L23.859,102.514L23.852,103.001L23.845,104.767L23.072,104.77L22.118,104.777C22.091,104.778 22.064,104.778 22.037,104.778C22.174,102.15 22.42,97.431 22.43,97.315L22.431,97.305L22.431,97.295C22.424,97.195 22.298,96.985 22.154,96.777L26.067,96.779C26.017,96.848 25.967,96.917 25.919,96.988C25.879,97.046 25.841,97.105 25.805,97.166C25.786,97.196 25.77,97.229 25.753,97.26C25.734,97.29 25.722,97.332 25.709,97.373L25.709,97.38C25.711,98.014 25.723,98.646 25.736,99.278L25.764,100.225C25.771,100.541 25.786,100.856 25.798,101.172L25.836,102.117L25.882,103.063C25.91,103.694 25.954,104.323 25.988,104.953L25.997,105.118L26.162,105.115L27.567,105.097L28.971,105.066C29.439,105.05 29.907,105.038 30.375,105.017C30.843,104.998 31.311,104.973 31.779,104.944C31.311,104.914 30.843,104.89 30.375,104.872Z" style="fill:rgb(145,0,69);fill-rule:nonzero;"/>
                        <path d="M23.699,97.644L23.684,97.615C23.678,97.603 23.513,97.294 23.182,97.294C22.851,97.294 22.686,97.603 22.679,97.615L22.665,97.644L22.665,98.646L23.699,98.646L23.699,97.644Z" style="fill:rgb(145,0,69);fill-rule:nonzero;"/>
                        <path d="M23.427,98.379L22.937,98.379L22.937,97.714C22.97,97.665 23.056,97.562 23.182,97.562C23.308,97.562 23.393,97.665 23.427,97.714L23.427,98.379Z" style="fill:rgb(254,221,16);fill-rule:nonzero;"/>
                        <rect x="21.733" y="95.556" width="0.638" height="0.952" style="fill:rgb(157,31,96);fill-rule:nonzero;"/>
                        <rect x="22.644" y="95.556" width="0.785" height="0.952" style="fill:rgb(157,31,96);fill-rule:nonzero;"/>
                        <path d="M23.864,92.838C23.864,92.838 23.526,93.108 23.51,93.441C23.495,93.726 23.063,93.442 23.281,93.173C23.499,92.903 23.864,92.838 23.864,92.838Z" style="fill:rgb(157,31,96);fill-rule:nonzero;"/>
                        <rect x="23.067" y="93.983" width="0.857" height="1.305" style="fill:rgb(157,31,96);fill-rule:nonzero;"/>
                        <rect x="23.701" y="95.556" width="0.786" height="0.952" style="fill:rgb(157,31,96);fill-rule:nonzero;"/>
                        <path d="M25.393,94.357L25.393,94.711L25.121,94.683L25.121,95.288L24.197,95.288L24.197,93.983L25.121,93.983L25.121,94.368L25.393,94.357Z" style="fill:rgb(157,31,96);fill-rule:nonzero;"/>
                        <path d="M25.545,95.556L25.545,96.507L24.759,96.508L24.759,95.556L25.545,95.556Z" style="fill:rgb(157,31,96);fill-rule:nonzero;"/>
                        <rect x="25.818" y="95.556" width="0.622" height="0.951" style="fill:rgb(157,31,96);fill-rule:nonzero;"/>
                        <path d="M23.415,93.56C23.33,93.56 23.219,93.459 23.219,93.332C23.22,93.282 23.237,93.227 23.281,93.173C23.499,92.903 23.864,92.838 23.864,92.838C23.864,92.838 23.526,93.108 23.51,93.441C23.505,93.525 23.465,93.56 23.415,93.56Z" style="fill:rgb(179,123,145);fill-rule:nonzero;"/>
                        <rect x="24.197" y="93.983" width="0.924" height="1.305" style="fill:rgb(254,221,16);fill-rule:nonzero;"/>
                        <rect x="23.067" y="93.983" width="0.857" height="1.305" style="fill:rgb(254,221,16);fill-rule:nonzero;"/>
                        <rect x="21.733" y="95.556" width="0.638" height="0.952" style="fill:rgb(254,221,16);fill-rule:nonzero;"/>
                        <rect x="22.644" y="95.556" width="0.785" height="0.952" style="fill:rgb(254,221,16);fill-rule:nonzero;"/>
                        <rect x="23.701" y="95.556" width="0.786" height="0.952" style="fill:rgb(254,221,16);fill-rule:nonzero;"/>
                        <path d="M25.545,95.556L25.545,96.507L24.759,96.508L24.759,95.556L25.545,95.556Z" style="fill:rgb(254,221,16);fill-rule:nonzero;"/>
                        <rect x="25.818" y="95.556" width="0.622" height="0.951" style="fill:rgb(254,221,16);fill-rule:nonzero;"/>
                        <path d="M26.193,94.637L29.621,95.13L25.393,94.711L25.121,94.683L24.978,94.669L24.874,94.659L24.895,94.494L24.887,94.377L24.992,94.373L25.121,94.368L25.393,94.357L31.084,94.129L26.172,94.491L31.786,94.865L26.193,94.637Z" style="fill:rgb(254,221,16);fill-rule:nonzero;"/>
                        <path d="M20.677,93.899C20.668,93.981 20.689,94.014 20.847,94.158C20.804,94.143 20.774,94.132 20.743,94.12C20.755,94.186 20.768,94.197 20.917,94.281C20.885,94.279 20.862,94.277 20.839,94.275C20.862,94.336 20.916,94.348 20.972,94.361C20.958,94.365 20.944,94.367 20.93,94.371C20.954,94.409 20.954,94.409 21.026,94.417C21.016,94.424 21.008,94.429 20.987,94.442C21.025,94.453 21.052,94.461 21.079,94.469C21.079,94.469 21.071,94.475 21.054,94.488C21.082,94.497 21.103,94.504 21.124,94.512C21.125,94.515 21.126,94.527 21.133,94.535C21.169,94.585 21.16,94.632 21.103,94.655C20.986,94.7 20.868,94.742 20.751,94.785C20.738,94.789 20.726,94.792 20.709,94.796C20.802,94.847 20.891,94.88 20.987,94.8C20.989,94.806 20.99,94.812 20.99,94.817C20.972,94.834 20.954,94.852 20.93,94.872C20.984,94.884 21.031,94.905 21.074,94.857C21.07,94.868 21.065,94.878 21.058,94.893C21.182,94.895 21.3,94.893 21.405,94.852C21.392,94.798 21.38,94.745 21.366,94.689C21.356,94.694 21.339,94.701 21.317,94.71C21.381,94.648 21.64,94.544 21.699,94.555C21.712,94.528 21.699,94.515 21.676,94.499C21.593,94.442 21.512,94.478 21.43,94.496C21.391,94.505 21.355,94.514 21.325,94.478C21.295,94.441 21.297,94.406 21.316,94.364C21.352,94.286 21.321,94.214 21.24,94.161C21.012,94.01 20.855,93.809 20.78,93.548C20.768,93.509 20.762,93.469 20.752,93.421C20.678,93.56 20.752,93.681 20.777,93.819C20.74,93.766 20.71,93.724 20.681,93.682C20.653,93.766 20.669,93.816 20.766,93.97C20.736,93.946 20.706,93.922 20.677,93.899Z" style="fill:rgb(145,0,69);fill-rule:nonzero;"/>
                        <path d="M20.77,92.466C20.761,92.548 20.783,92.581 20.94,92.725C20.898,92.71 20.868,92.699 20.836,92.688C20.849,92.753 20.862,92.764 21.01,92.848C20.978,92.846 20.955,92.845 20.932,92.843C20.956,92.903 21.009,92.916 21.066,92.929C21.052,92.932 21.038,92.935 21.024,92.938C21.047,92.976 21.047,92.976 21.119,92.985C21.11,92.991 21.102,92.996 21.08,93.009C21.118,93.021 21.146,93.028 21.172,93.036C21.172,93.036 21.165,93.042 21.148,93.055C21.175,93.065 21.196,93.072 21.218,93.079C21.219,93.082 21.22,93.094 21.226,93.103C21.262,93.152 21.254,93.2 21.196,93.222C21.08,93.268 20.962,93.309 20.844,93.352C20.832,93.356 20.82,93.359 20.802,93.364C20.896,93.415 20.985,93.447 21.081,93.368C21.082,93.373 21.083,93.379 21.084,93.384C21.066,93.402 21.047,93.419 21.024,93.439C21.077,93.452 21.125,93.472 21.168,93.424C21.163,93.435 21.159,93.446 21.152,93.461C21.276,93.462 21.394,93.459 21.498,93.42C21.486,93.365 21.473,93.312 21.46,93.256C21.45,93.26 21.433,93.268 21.411,93.278C21.474,93.216 21.734,93.111 21.792,93.123C21.806,93.095 21.792,93.083 21.769,93.066C21.687,93.01 21.605,93.045 21.524,93.063C21.484,93.073 21.448,93.081 21.418,93.045C21.388,93.009 21.39,92.973 21.409,92.932C21.445,92.854 21.414,92.781 21.333,92.728C21.105,92.578 20.948,92.375 20.873,92.115C20.862,92.076 20.856,92.036 20.845,91.989C20.772,92.127 20.845,92.248 20.871,92.386C20.834,92.334 20.804,92.292 20.774,92.249C20.746,92.334 20.762,92.383 20.859,92.537C20.829,92.513 20.8,92.489 20.77,92.466Z" style="fill:rgb(145,0,69);fill-rule:nonzero;"/>
                        <path d="M21.837,92.869C21.865,92.797 21.882,92.722 21.907,92.649C21.932,92.571 21.961,92.494 21.985,92.426C21.842,92.51 21.736,92.641 21.664,92.802C21.643,92.851 21.614,92.897 21.582,92.94C21.551,92.982 21.511,93.018 21.476,93.056C21.55,93.042 21.631,93.036 21.705,93.011C21.769,92.989 21.813,92.932 21.837,92.869Z" style="fill:rgb(145,0,69);fill-rule:nonzero;"/>
                        <path d="M21.571,94.235C21.549,94.283 21.521,94.33 21.489,94.372C21.457,94.415 21.418,94.45 21.382,94.488C21.457,94.474 21.538,94.469 21.612,94.444C21.676,94.422 21.72,94.365 21.744,94.301C21.771,94.229 21.789,94.155 21.813,94.081C21.839,94.004 21.867,93.927 21.891,93.859C21.748,93.942 21.643,94.074 21.571,94.235Z" style="fill:rgb(145,0,69);fill-rule:nonzero;"/>
                        <path d="M19.354,93.203C19.346,93.284 19.367,93.318 19.524,93.462C19.482,93.447 19.452,93.435 19.42,93.424C19.433,93.489 19.445,93.501 19.594,93.584C19.563,93.583 19.539,93.581 19.516,93.579C19.54,93.639 19.593,93.653 19.65,93.665C19.636,93.668 19.622,93.671 19.608,93.674C19.631,93.713 19.631,93.713 19.703,93.721C19.694,93.727 19.685,93.733 19.664,93.746C19.702,93.757 19.73,93.765 19.756,93.773C19.756,93.773 19.749,93.779 19.732,93.792C19.759,93.801 19.78,93.808 19.802,93.816C19.803,93.818 19.804,93.83 19.81,93.839C19.846,93.889 19.838,93.936 19.78,93.958C19.664,94.004 19.546,94.045 19.428,94.088C19.416,94.092 19.404,94.095 19.387,94.1C19.48,94.151 19.569,94.184 19.665,94.104C19.666,94.11 19.667,94.115 19.668,94.121C19.649,94.138 19.631,94.155 19.608,94.176C19.661,94.188 19.709,94.208 19.752,94.161C19.747,94.172 19.743,94.182 19.736,94.198C19.86,94.199 19.978,94.196 20.082,94.156C20.069,94.102 20.057,94.048 20.044,93.993C20.034,93.997 20.017,94.004 19.995,94.014C20.058,93.953 20.318,93.848 20.376,93.859C20.39,93.831 20.376,93.819 20.353,93.803C20.271,93.746 20.189,93.781 20.107,93.8C20.068,93.809 20.032,93.817 20.002,93.781C19.972,93.745 19.974,93.709 19.993,93.668C20.029,93.591 19.998,93.518 19.917,93.464C19.689,93.314 19.533,93.112 19.458,92.852C19.446,92.812 19.44,92.773 19.429,92.725C19.356,92.864 19.429,92.985 19.455,93.123C19.418,93.07 19.388,93.028 19.358,92.985C19.33,93.07 19.346,93.12 19.443,93.273C19.413,93.249 19.384,93.226 19.354,93.203Z" style="fill:rgb(145,0,69);fill-rule:nonzero;"/>
                        <path d="M20.421,93.605C20.449,93.534 20.466,93.458 20.491,93.385C20.516,93.307 20.545,93.23 20.568,93.163C20.426,93.246 20.32,93.378 20.248,93.539C20.226,93.587 20.198,93.634 20.166,93.677C20.135,93.718 20.095,93.754 20.06,93.792C20.134,93.778 20.215,93.773 20.289,93.747C20.353,93.725 20.397,93.669 20.421,93.605Z" style="fill:rgb(145,0,69);fill-rule:nonzero;"/>
                    </g>
                    <g transform="matrix(1.36008,0,0,1.00909,-384.557,414.193)">
                        <path d="M470.826,2281L2009.49,2281L1613,2309.29L1244.9,2315.93L856,2312L470.826,2281Z" style="fill:rgb(146,25,71);"/>
                    </g>
                    <g transform="matrix(1.85565,0,0,1.85565,-485.535,-772.75)">
                        <g transform="matrix(96.552,0,0,96.552,1457.01,1778)">
                        </g>
                        <text x="470.826px" y="1778px" style="font-family:'Sanchez-Regular', 'Sanchez';font-size:96.552px;fill:rgb(145,0,69);stroke:rgb(145,0,69);stroke-width:2.12px;">GO<tspan x="615.268px " y="1778px ">D</tspan>&apos;S L<tspan x="856.359px 888.124px 960.924px 1040.1px 1109.62px 1185.6px 1253.86px 1330.33px 1393.96px " y="1778px 1778px 1778px 1778px 1778px 1778px 1778px 1778px 1778px ">IGHTHOUSE</tspan></text>
                    </g>
                    <g transform="matrix(0.850268,0,0,0.850268,-259.519,737.084)">
                        <g transform="matrix(87.5749,0,0,87.5749,2751.58,2221.57)">
                        </g>
                        <text x="921px" y="2221.58px" style="font-family:'Sanchez-Regular', 'Sanchez';font-size:87.575px;fill:rgb(145,0,69);">E<tspan x="977.749px 1027.14px " y="2221.58px 2221.58px ">ye</tspan>s t<tspan x="1178.56px 1232.07px 1280.32px " y="2221.58px 2221.58px 2221.58px ">hat</tspan> see...ea<tspan x="1616.96px 1653.48px " y="2221.58px 2221.58px ">rs</tspan> t<tspan x="1757.78px 1811.29px 1859.54px " y="2221.58px 2221.58px 2221.58px ">hat</tspan> h<tspan x="1974.18px 2021.2px 2071.82px " y="2221.58px 2221.58px 2221.58px ">ear</tspan> (Isaia<tspan x="2373.17px " y="2221.58px ">h</tspan> 32:3-4)</text>
                    </g>
                </g>
            </g>
        </g>
    </g>
</svg>
